GRF
version=1
nRows=37
nColumns=19
inDegrees=no
endheader
time	ground_force_vx	ground_force_vy	ground_force_vz	ground_force_px	ground_force_py	ground_force_pz	ground_torque_x	ground_torque_y	ground_torque_z	1_ground_force_vx	1_ground_force_vy	1_ground_force_vz	1_ground_force_px	1_ground_force_py	1_ground_force_pz	1_ground_torque_x	1_ground_torque_y	1_ground_torque_z
      4.25200000	    -41.32342509	    352.64277757	      4.53497955	      0.16758528	     -0.00000000	      0.02865003	     -0.00000000	     -0.22473010	      0.00000000	     42.79369254	    356.85049611	     -5.46559901	     -0.23822309	      0.00000000	      0.06914527	      0.00000000	      1.27922090	     -0.00000000
      4.25300000	    -41.33120768	    352.61603863	      4.52803021	      0.16758322	     -0.00000000	      0.02866486	     -0.00000000	     -0.22849463	      0.00000000	     42.79435662	    356.85670344	     -5.46331957	     -0.23821732	      0.00000000	      0.06913321	      0.00000000	      1.28076938	     -0.00000000
      4.25400000	    -41.33870968	    352.58848769	      4.52119955	      0.16758154	     -0.00000000	      0.02867987	     -0.00000000	     -0.23237293	      0.00000000	     42.79443901	    356.86145938	     -5.46113260	     -0.23821164	      0.00000000	      0.06912209	      0.00000000	      1.28226574	     -0.00000000
      4.25500000	    -41.34591156	    352.56015823	      4.51448851	      0.16758025	     -0.00000000	      0.02869507	     -0.00000000	     -0.23635101	      0.00000000	     42.79393222	    356.86475311	     -5.45902864	     -0.23820605	      0.00000000	      0.06911197	      0.00000000	      1.28370299	     -0.00000000
      4.25600000	    -41.35279437	    352.53108385	      4.50789767	      0.16757934	     -0.00000000	      0.02871048	     -0.00000000	     -0.24041452	      0.00000000	     42.79283176	    356.86657704	     -5.45699782	     -0.23820058	      0.00000000	      0.06910290	      0.00000000	      1.28507443	     -0.00000000
      4.25700000	    -41.35933980	    352.50129810	      4.50142729	      0.16757883	     -0.00000000	      0.02872610	     -0.00000000	     -0.24454894	      0.00000000	     42.79113605	    356.86692688	     -5.45502995	     -0.23819524	      0.00000000	      0.06909493	      0.00000000	      1.28637367	     -0.00000000
      4.25800000	    -41.36553032	    352.47083439	      4.49507729	      0.16757869	     -0.00000000	      0.02874196	     -0.00000000	     -0.24873966	      0.00000000	     42.78884638	    356.86580170	     -5.45311453	     -0.23819006	      0.00000000	      0.06908810	      0.00000000	      1.28759473	     -0.00000000
      4.25900000	    -41.37134934	    352.43972595	      4.48884734	      0.16757894	     -0.00000000	      0.02875806	     -0.00000000	     -0.25297215	      0.00000000	     42.78596676	    356.86320393	     -5.45124086	     -0.23818505	      0.00000000	      0.06908245	      0.00000000	      1.28873206	     -0.00000000
      4.26000000	    -41.37678127	    352.40800572	      4.48273688	      0.16757957	     -0.00000000	      0.02877441	     -0.00000000	     -0.25723206	      0.00000000	     42.78250386	    356.85913942	     -5.44939813	     -0.23818021	      0.00000000	      0.06907803	      0.00000000	      1.28978055	     -0.00000000
      4.26100000	    -41.38181169	    352.37570633	      4.47674517	      0.16758057	     -0.00000000	      0.02879101	     -0.00000000	     -0.26150536	      0.00000000	     42.77846677	    356.85361740	     -5.44757548	     -0.23817557	      0.00000000	      0.06907485	      0.00000000	      1.29073561	     -0.00000000
      4.26200000	    -41.38642744	    352.34286001	      4.47087134	      0.16758194	     -0.00000000	      0.02880785	     -0.00000000	     -0.26577845	      0.00000000	     42.77386692	    356.84665044	     -5.44576209	     -0.23817114	      0.00000000	      0.06907296	      0.00000000	      1.29159316	     -0.00000000
      4.26300000	    -41.39061673	    352.30949858	      4.46511446	      0.16758367	     -0.00000000	      0.02882495	     -0.00000000	     -0.27003827	      0.00000000	     42.76871786	    356.83825447	     -5.44394727	     -0.23816691	      0.00000000	      0.06907236	      0.00000000	      1.29234968	     -0.00000000
      4.26400000	    -41.39436925	    352.27565339	      4.45947360	      0.16758575	     -0.00000000	      0.02884229	     -0.00000000	     -0.27427242	      0.00000000	     42.76303505	    356.82844867	     -5.44212056	     -0.23816290	      0.00000000	      0.06907307	      0.00000000	      1.29300215	     -0.00000000
      4.26500000	    -41.39767623	    352.24135535	      4.45394789	      0.16758818	     -0.00000000	      0.02885986	     -0.00000000	     -0.27846924	      0.00000000	     42.75683566	    356.81725546	     -5.44027179	     -0.23815911	      0.00000000	      0.06907511	      0.00000000	      1.29354815	     -0.00000000
      4.26600000	    -41.40053055	    352.20663483	      4.44853662	      0.16759095	     -0.00000000	      0.02887766	     -0.00000000	     -0.28261786	      0.00000000	     42.75013840	    356.80470036	     -5.43839119	     -0.23815554	      0.00000000	      0.06907848	      0.00000000	      1.29398574	     -0.00000000
      4.26700000	    -41.40292679	    352.17152172	      4.44323925	      0.16759405	     -0.00000000	      0.02889566	     -0.00000000	     -0.28670836	      0.00000000	     42.74296322	    356.79081198	     -5.43646947	     -0.23815220	      0.00000000	      0.06908318	      0.00000000	      1.29431353	     -0.00000000
      4.26800000	    -41.40486126	    352.13604535	      4.43805557	      0.16759747	     -0.00000000	      0.02891385	     -0.00000000	     -0.29073173	      0.00000000	     42.73533116	    356.77562184	     -5.43449789	     -0.23814908	      0.00000000	      0.06908919	      0.00000000	      1.29453061	     -0.00000000
      4.26900000	    -41.40633208	    352.10023456	      4.43298568	      0.16760121	     -0.00000000	      0.02893220	     -0.00000000	     -0.29467997	      0.00000000	     42.72726409	    356.75916437	     -5.43246832	     -0.23814618	      0.00000000	      0.06909651	      0.00000000	      1.29463653	     -0.00000000
      4.27000000	    -41.40733913	    352.06411760	      4.42803011	      0.16760525	     -0.00000000	      0.02895070	     -0.00000000	     -0.29854613	      0.00000000	     42.71878449	    356.74147671	     -5.43037334	     -0.23814350	      0.00000000	      0.06910512	      0.00000000	      1.29463129	     -0.00000000
      4.27100000	    -41.40788413	    352.02772222	      4.42318989	      0.16760958	     -0.00000000	      0.02896930	     -0.00000000	     -0.30232430	      0.00000000	     42.70991527	    356.72259867	     -5.42820626	     -0.23814102	      0.00000000	      0.06911499	      0.00000000	      1.29451523	     -0.00000000
      4.27200000	    -41.40797057	    351.99107559	      4.41846658	      0.16761421	     -0.00000000	      0.02898798	     -0.00000000	     -0.30600962	      0.00000000	     42.70067953	    356.70257260	     -5.42596121	     -0.23813874	      0.00000000	      0.06912611	      0.00000000	      1.29428906	     -0.00000000
      4.27300000	    -41.40760368	    351.95420433	      4.41386235	      0.16761911	     -0.00000000	      0.02900670	     -0.00000000	     -0.30959831	      0.00000000	     42.69110041	    356.68144326	     -5.42363313	     -0.23813665	      0.00000000	      0.06913842	      0.00000000	      1.29395374	     -0.00000000
      4.27400000	    -41.40679041	    351.91713450	      4.40938003	      0.16762428	     -0.00000000	      0.02902543	     -0.00000000	     -0.31308760	      0.00000000	     42.68120086	    356.65925776	     -5.42121786	     -0.23813474	      0.00000000	      0.06915190	      0.00000000	      1.29351048	     -0.00000000
      4.27500000	    -41.40553934	    351.87989160	      4.40502315	      0.16762972	     -0.00000000	      0.02904414	     -0.00000000	     -0.31647576	      0.00000000	     42.67100352	    356.63606541	     -5.41871209	     -0.23813300	      0.00000000	      0.06916650	      0.00000000	      1.29296064	     -0.00000000
      4.27600000	    -41.40386059	    351.84250053	      4.40079597	      0.16763541	     -0.00000000	      0.02906277	     -0.00000000	     -0.31976200	      0.00000000	     42.66053056	    356.61191764	     -5.41611345	     -0.23813141	      0.00000000	      0.06918218	      0.00000000	      1.29230571	     -0.00000000
      4.27700000	    -41.40176573	    351.80498565	      4.39670352	      0.16764135	     -0.00000000	      0.02908130	     -0.00000000	     -0.32294645	      0.00000000	     42.64980358	    356.58686791	     -5.41342044	     -0.23812996	      0.00000000	      0.06919887	      0.00000000	      1.29154722	     -0.00000000
      4.27800000	    -41.39926769	    351.76737067	      4.39275161	      0.16764754	     -0.00000000	      0.02909968	     -0.00000000	     -0.32603013	      0.00000000	     42.63884344	    356.56097157	     -5.41063245	     -0.23812864	      0.00000000	      0.06921653	      0.00000000	      1.29068668	     -0.00000000
      4.27900000	    -41.39638058	    351.72967874	      4.38894687	      0.16765395	     -0.00000000	      0.02911786	     -0.00000000	     -0.32901481	      0.00000000	     42.62767024	    356.53428582	     -5.40774974	     -0.23812744	      0.00000000	      0.06923510	      0.00000000	      1.28972557	     -0.00000000
      4.28000000	    -41.39311959	    351.69193237	      4.38529670	      0.16766060	     -0.00000000	      0.02913582	     -0.00000000	     -0.33190303	      0.00000000	     42.61630322	    356.50686962	     -5.40477341	     -0.23812633	      0.00000000	      0.06925451	      0.00000000	      1.28866525	     -0.00000000
      4.28100000	    -41.38950085	    351.65415343	      4.38180931	      0.16766746	     -0.00000000	      0.02915350	     -0.00000000	     -0.33469796	      0.00000000	     42.60476076	    356.47878354	     -5.40170534	     -0.23812531	      0.00000000	      0.06927471	      0.00000000	      1.28750691	     -0.00000000
      4.28200000	    -41.38554123	    351.61636315	      4.37849368	      0.16767455	     -0.00000000	      0.02917087	     -0.00000000	     -0.33740331	      0.00000000	     42.59306029	    356.45008974	     -5.39854814	     -0.23812435	      0.00000000	      0.06929561	      0.00000000	      1.28625154	     -0.00000000
      4.28300000	    -41.38125822	    351.57858210	      4.37535950	      0.16768184	     -0.00000000	      0.02918790	     -0.00000000	     -0.34002334	      0.00000000	     42.58121836	    356.42085189	     -5.39530514	     -0.23812344	      0.00000000	      0.06931715	      0.00000000	      1.28489992	     -0.00000000
      4.28400000	    -41.37666971	    351.54083017	      4.37241721	      0.16768933	     -0.00000000	      0.02920454	     -0.00000000	     -0.34256265	      0.00000000	     42.56925062	    356.39113503	     -5.39198027	     -0.23812258	      0.00000000	      0.06933926	      0.00000000	      1.28345255	     -0.00000000
      4.28500000	    -41.37179389	    351.50312655	      4.36967786	      0.16769703	     -0.00000000	      0.02922077	     -0.00000000	     -0.34502621	      0.00000000	     42.55717188	    356.36100554	     -5.38857802	     -0.23812174	      0.00000000	      0.06936187	      0.00000000	      1.28190964	     -0.00000000
      4.28600000	    -41.36664904	    351.46548973	      4.36715311	      0.16770491	     -0.00000000	      0.02923655	     -0.00000000	     -0.34741922	      0.00000000	     42.54499617	    356.33053103	     -5.38510335	     -0.23812090	      0.00000000	      0.06938490	      0.00000000	      1.28027111	     -0.00000000
      4.28700000	    -41.36125334	    351.42793750	      4.36485513	      0.16771298	     -0.00000000	      0.02925186	     -0.00000000	     -0.34974704	      0.00000000	     42.53273679	    356.29978026	     -5.38156164	     -0.23812007	      0.00000000	      0.06940827	      0.00000000	      1.27853659	     -0.00000000
      4.28800000	    -41.35562477	    351.39048692	      4.36279654	      0.16772123	     -0.00000000	      0.02926669	     -0.00000000	     -0.35201512	      0.00000000	     42.52040643	    356.26882301	     -5.37795858	     -0.23811921	      0.00000000	      0.06943192	      0.00000000	      1.27670540	     -0.00000000
